<?xml version="1.0" encoding="UTF-8" standalone="no"?>
<!-- Created with Inkscape (http://www.inkscape.org/) -->

<svg
   xmlns:dc="http://purl.org/dc/elements/1.1/"
   xmlns:cc="http://creativecommons.org/ns#"
   xmlns:rdf="http://www.w3.org/1999/02/22-rdf-syntax-ns#"
   xmlns:svg="http://www.w3.org/2000/svg"
   xmlns="http://www.w3.org/2000/svg"
   xmlns:sodipodi="http://sodipodi.sourceforge.net/DTD/sodipodi-0.dtd"
   xmlns:inkscape="http://www.inkscape.org/namespaces/inkscape"
   width="124.12814mm"
   height="104.14261mm"
   viewBox="0 0 439.8241 369.00924"
   id="svg2"
   version="1.1"
   inkscape:version="0.91 r13725"
   sodipodi:docname="coordinates.svg">
  <defs
     id="defs4">
    <inkscape:perspective
       sodipodi:type="inkscape:persp3d"
       inkscape:vp_x="34.345185 : -21.32159 : 1"
       inkscape:vp_y="0 : 999.99996 : 0"
       inkscape:vp_z="691.95158 : 556.89537 : 1"
       inkscape:persp3d-origin="372.04721 : 350.78739 : 1"
       id="perspective4136" />
  </defs>
  <sodipodi:namedview
     id="base"
     pagecolor="#ffffff"
     bordercolor="#666666"
     borderopacity="1.0"
     inkscape:pageopacity="0.0"
     inkscape:pageshadow="2"
     inkscape:zoom="1.4"
     inkscape:cx="137.81009"
     inkscape:cy="167.1982"
     inkscape:document-units="px"
     inkscape:current-layer="layer1"
     showgrid="false"
     inkscape:window-width="1920"
     inkscape:window-height="996"
     inkscape:window-x="-8"
     inkscape:window-y="54"
     inkscape:window-maximized="1"
     fit-margin-top="0"
     fit-margin-left="0"
     fit-margin-right="0"
     fit-margin-bottom="0" />
  <metadata
     id="metadata7">
    <rdf:RDF>
      <cc:Work
         rdf:about="">
        <dc:format>image/svg+xml</dc:format>
        <dc:type
           rdf:resource="http://purl.org/dc/dcmitype/StillImage" />
        <dc:title></dc:title>
      </cc:Work>
    </rdf:RDF>
  </metadata>
  <g
     inkscape:label="Ebene 1"
     inkscape:groupmode="layer"
     id="layer1"
     transform="translate(-158.75836,-161.62735)">
    <g
       id="g4176"
       transform="translate(153.54319,58.588848)">
      <rect
         y="328.58789"
         x="157.07872"
         height="2.5253873"
         width="272.74115"
         id="rect4172"
         style="opacity:1;fill:#f60000;fill-opacity:1;fill-rule:evenodd;stroke:none;stroke-width:11;stroke-miterlimit:4;stroke-dasharray:none;stroke-opacity:1" />
      <path
         inkscape:connector-curvature="0"
         id="path4174"
         d="m 429.56737,326.18879 0,7.57614 13.60743,-3.6461 z"
         style="fill:#f60000;fill-opacity:1;fill-rule:evenodd;stroke:#f60000;stroke-width:1px;stroke-linecap:butt;stroke-linejoin:miter;stroke-opacity:1" />
    </g>
    <g
       transform="matrix(-0.3323868,1,-1,0,944.59239,84.168746)"
       id="g4186">
      <g
         id="g4197"
         transform="translate(1.4285714,182.11171)">
        <path
           id="rect4188"
           transform="matrix(0,-1,1,-0.3323868,-20.959778,800.10524)"
           d="m 366.71094,307.71875 -47.55274,143.06055 2.52539,0 47.55274,-143.06055 -2.52539,0 z"
           style="opacity:1;fill:#0200f6;fill-opacity:1;fill-rule:evenodd;stroke:none;stroke-width:11;stroke-miterlimit:4;stroke-dasharray:none;stroke-opacity:1"
           inkscape:connector-curvature="0" />
        <path
           style="fill:#0000f6;fill-opacity:1;fill-rule:evenodd;stroke:#0000f6;stroke-width:1px;stroke-linecap:butt;stroke-linejoin:miter;stroke-opacity:1"
           d="m 429.56737,326.18879 0,7.57614 13.60743,-3.6461 z"
           id="path4190"
           inkscape:connector-curvature="0" />
      </g>
    </g>
    <g
       id="g4180"
       transform="matrix(0,-1,-1,0,661.61364,606.66662)">
      <path
         style="opacity:1;fill:#1bf500;fill-opacity:1;fill-rule:evenodd;stroke:none;stroke-width:11;stroke-miterlimit:4;stroke-dasharray:none;stroke-opacity:1"
         d="m 430.83777,331.02413 -233.74805,0 0,-2.52539 233.74805,0 0,2.52539 z"
         id="rect4182"
         inkscape:connector-curvature="0" />
      <path
         style="fill:#1df600;fill-opacity:1;fill-rule:evenodd;stroke:#1df600;stroke-width:1px;stroke-linecap:butt;stroke-linejoin:miter;stroke-opacity:1"
         d="m 429.56737,326.18879 0,7.57614 13.60743,-3.6461 z"
         id="path4184"
         inkscape:connector-curvature="0" />
    </g>
    <g
       id="g4227"
       transform="matrix(0.57031159,-0.14323473,0.22216769,0.24808983,137.62788,362.26342)">
      <g
         id="g4342">
        <path
           style="fill:none;stroke:#000000;stroke-width:0.58920002;stroke-linejoin:round;stroke-miterlimit:10"
           inkscape:connector-curvature="0"
           stroke-miterlimit="10"
           d="m 312.361,227.316 c 6.822,25.457 0.109,50.505 -18.525,69.141 -18.637,18.636 -43.684,25.347 -69.141,18.525 -25.457,-6.82 -43.793,-25.157 -50.614,-50.614 -6.821,-25.457 -0.109,-50.504 18.526,-69.14 18.636,-18.636 43.684,-25.347 69.141,-18.526 25.457,6.821 43.793,25.157 50.613,50.614 l 0,0"
           id="path4229" />
        <path
           style="clip-rule:evenodd;fill:#fffcfc;fill-rule:evenodd"
           inkscape:connector-curvature="0"
           d="M 218.924,231.814 25.028,119.868 l 193.896,111.946 0,0 z M 257.25,221.544 369.195,27.648 257.25,221.544 l 0,0 z m 10.27,38.327 193.896,111.945 -193.896,-111.945 0,0 z m -38.327,10.27 -111.945,193.895 111.945,-193.895 0,0 z"
           id="path4231" />
        <path
           style="fill:none;stroke:#000000;stroke-width:1.98259997;stroke-linejoin:round;stroke-miterlimit:10;stroke-dasharray:1.9826, 23.7911;stroke-dashoffset:19"
           inkscape:connector-curvature="0"
           stroke-miterlimit="10"
           d="M 218.924,231.814 25.028,119.868 l 193.896,111.946 0,0 z M 257.25,221.544 369.195,27.648 257.25,221.544 l 0,0 z m 10.27,38.327 193.896,111.945 -193.896,-111.945 0,0 z m -38.327,10.27 -111.945,193.895 111.945,-193.895 0,0 z"
           id="path4233" />
        <path
           style="fill:none;stroke:#000000;stroke-width:3.52519989;stroke-linejoin:round;stroke-miterlimit:10;stroke-dasharray:7.0504, 7.0504"
           inkscape:connector-curvature="0"
           stroke-miterlimit="10"
           d="m 379.777,209.252 c 20.199,75.379 -24.586,152.949 -99.965,173.147 -75.38,20.197 -152.95,-24.588 -173.148,-99.967 -20.198,-75.379 24.587,-152.949 99.967,-173.147 75.379,-20.197 152.949,24.588 173.146,99.967 l 0,0 z"
           id="path4235" />
        <path
           style="clip-rule:evenodd;fill-rule:evenodd"
           inkscape:connector-curvature="0"
           d="m 381.566,215.926 c -3.76,1.007 -7.627,-1.226 -8.635,-4.985 -1.008,-3.759 1.227,-7.627 4.984,-8.635 3.76,-1.007 7.629,1.226 8.637,4.985 1.007,3.759 -1.226,7.627 -4.986,8.635 l 0,0 z"
           id="path4237" />
        <path
           style="fill:none;stroke:#000000;stroke-width:1.76259995;stroke-miterlimit:10"
           inkscape:connector-curvature="0"
           stroke-miterlimit="10"
           d="m 381.566,215.926 c -3.76,1.007 -7.627,-1.226 -8.635,-4.985 -1.008,-3.759 1.227,-7.627 4.984,-8.635 3.76,-1.007 7.629,1.226 8.637,4.985 1.007,3.759 -1.226,7.627 -4.986,8.635 l 0,0 z"
           id="path4239" />
        <path
           style="clip-rule:evenodd;fill-rule:evenodd"
           inkscape:connector-curvature="0"
           d="m 273.139,384.188 c -1.008,-3.76 1.225,-7.628 4.984,-8.635 3.76,-1.008 7.627,1.226 8.635,4.985 1.008,3.759 -1.227,7.627 -4.984,8.635 -3.76,1.007 -7.629,-1.227 -8.635,-4.985 l 0,0 z"
           id="path4241" />
        <path
           style="fill:none;stroke:#000000;stroke-width:1.76259995;stroke-miterlimit:10"
           inkscape:connector-curvature="0"
           stroke-miterlimit="10"
           d="m 273.139,384.188 c -1.008,-3.76 1.225,-7.628 4.984,-8.635 3.76,-1.008 7.627,1.226 8.635,4.985 1.008,3.759 -1.227,7.627 -4.984,8.635 -3.76,1.007 -7.629,-1.227 -8.635,-4.985 l 0,0 z"
           id="path4243" />
        <path
           style="clip-rule:evenodd;fill-rule:evenodd"
           inkscape:connector-curvature="0"
           d="m 104.876,275.759 c 3.759,-1.008 7.628,1.226 8.635,4.985 1.007,3.759 -1.226,7.628 -4.985,8.635 -3.759,1.007 -7.627,-1.227 -8.635,-4.985 -1.008,-3.758 1.226,-7.628 4.985,-8.635 l 0,0 z"
           id="path4245" />
        <path
           style="fill:none;stroke:#000000;stroke-width:1.76259995;stroke-miterlimit:10"
           inkscape:connector-curvature="0"
           stroke-miterlimit="10"
           d="m 104.876,275.759 c 3.759,-1.008 7.628,1.226 8.635,4.985 1.007,3.759 -1.226,7.628 -4.985,8.635 -3.759,1.007 -7.627,-1.227 -8.635,-4.985 -1.008,-3.758 1.226,-7.628 4.985,-8.635 l 0,0 z"
           id="path4247" />
        <path
           style="clip-rule:evenodd;fill-rule:evenodd"
           inkscape:connector-curvature="0"
           d="m 213.305,107.497 c 1.007,3.759 -1.226,7.628 -4.985,8.635 -3.759,1.007 -7.628,-1.226 -8.635,-4.985 -1.007,-3.759 1.226,-7.628 4.985,-8.635 3.759,-1.007 7.628,1.226 8.635,4.985 l 0,0 z"
           id="path4249" />
        <path
           style="fill:none;stroke:#000000;stroke-width:1.76259995;stroke-miterlimit:10"
           inkscape:connector-curvature="0"
           stroke-miterlimit="10"
           d="m 213.305,107.497 c 1.007,3.759 -1.226,7.628 -4.985,8.635 -3.759,1.007 -7.628,-1.226 -8.635,-4.985 -1.007,-3.759 1.226,-7.628 4.985,-8.635 3.759,-1.007 7.628,1.226 8.635,4.985 l 0,0 z"
           id="path4251" />
        <path
           style="fill:none;stroke:#000000;stroke-width:3.16359997;stroke-linejoin:round;stroke-miterlimit:10"
           inkscape:connector-curvature="0"
           stroke-miterlimit="10"
           d="m 365.768,213.006 c 18.125,67.645 -22.064,137.256 -89.711,155.381 -67.644,18.126 -137.255,-22.064 -155.38,-89.709 -18.125,-67.646 22.064,-137.256 89.709,-155.382 67.645,-18.124 137.255,22.065 155.382,89.71 l 0,0 z"
           id="path4253" />
        <path
           id="polygon4255"
           transform="matrix(1.4314749,0.82646245,-1.3815871,3.2331384,309.60102,-1279.6629)"
           d="m 284.29688,364.4043 31.22265,23.08789 c 0.58115,-1.3798 2.1452,-2.73064 4.64063,-3.78516 2.49549,-1.05466 5.492,-1.63109 8.43359,-1.74023 l -44.29687,-17.5625 z m 99.54101,0 -53.22266,17.5625 c 2.88611,0.10917 5.58771,0.68561 7.54688,1.74023 1.95938,1.0548 2.83709,2.40532 2.7168,3.78516 l 42.95898,-23.08789 z m -68.56055,24.04492 -42.95898,23.08789 53.22852,-17.56445 c -2.88829,-0.10861 -5.59421,-0.6849 -7.55469,-1.74024 -1.95864,-1.05439 -2.83429,-2.40388 -2.71485,-3.7832 z m 25.35938,0 c -0.58117,1.37978 -2.1453,2.72857 -4.64063,3.7832 -2.49659,1.05513 -5.49465,1.63146 -8.4375,1.74024 l 44.30079,17.56445 -31.22266,-23.08789 z"
           style="clip-rule:evenodd;fill:#6e6e6e;fill-rule:evenodd"
           inkscape:connector-curvature="0" />
        <path
           id="polygon4257"
           transform="matrix(1.4314749,0.82646245,-1.3815871,3.2331384,309.60102,-1279.6629)"
           d="m 341.18555,336.39258 -23.77735,45.83398 -98.25781,5.74414 95.33789,5.74414 0.48242,45.83399 23.77735,-45.83594 98.25586,-5.74219 -95.33594,-5.74414 -0.48242,-45.83398 z m -11.57617,45.55078 c 3.25854,2e-5 6.36738,0.58729 8.55273,1.76367 4.37093,2.35301 3.40064,6.17268 -2.16602,8.52539 -5.56721,2.35285 -13.63321,2.35276 -18.0039,0 -4.37093,-2.353 -3.39893,-6.17293 2.16797,-8.52539 2.7836,-1.17642 6.19067,-1.76369 9.44922,-1.76367 z"
           style="clip-rule:evenodd;fill-rule:evenodd"
           inkscape:connector-curvature="0" />
        <polygon
           style="fill:none;stroke:none;stroke-width:2.09050012;stroke-linejoin:round;stroke-miterlimit:10;stroke-opacity:1"
           stroke-miterlimit="10"
           points="235.883,218.454 333.246,89.917 270.611,238.504 399.148,335.866 399.148,335.866 250.561,273.231 153.198,401.769 215.833,253.182 87.296,155.818 "
           id="polygon4259" />
        <path
           style="fill:none;stroke:#000000;stroke-width:1.85280001;stroke-linejoin:round;stroke-miterlimit:10"
           inkscape:connector-curvature="0"
           stroke-miterlimit="10"
           d="m 239.678,163.812 c 0.413,-1.651 7.447,-1.369 7.074,0.124 -1.711,12.55 -0.924,16.492 -0.924,16.492 l -5.504,-0.111 c 0.25,1.221 0.994,-8.51 -0.646,-16.505 l 0,0 m 41.49,9.218 c 1.184,-1.224 7.135,2.538 6.064,3.644 -7.758,10.013 -9.047,13.82 -9.047,13.82 l -4.711,-2.848 c -0.394,1.184 5.116,-6.872 7.694,-14.616 l 0,0 m 31.322,28.728 c 1.637,-0.468 4.91,5.765 3.43,6.188 -11.725,4.793 -14.744,7.445 -14.744,7.445 l -2.656,-4.822 c -0.932,0.828 7.867,-3.393 13.97,-8.811 l 0,0 m 12.762,40.54 c 1.652,0.413 1.369,7.447 -0.123,7.074 -12.551,-1.711 -16.492,-0.924 -16.492,-0.924 l 0.111,-5.504 c -1.223,0.251 8.51,0.994 16.504,-0.646 l 0,0 m -9.217,41.491 c 1.223,1.183 -2.539,7.134 -3.645,6.063 -10.014,-7.757 -13.82,-9.046 -13.82,-9.046 l 2.848,-4.711 c -1.184,-0.393 6.873,5.117 14.617,7.694 l 0,0 m -28.728,31.322 c 0.469,1.637 -5.766,4.909 -6.188,3.43 -4.793,-11.725 -7.445,-14.744 -7.445,-14.744 l 4.82,-2.656 c -0.828,-0.933 3.395,7.867 8.813,13.97 l 0,0 m -40.541,12.763 c -0.412,1.651 -7.447,1.368 -7.074,-0.125 1.711,-12.55 0.924,-16.491 0.924,-16.491 l 5.505,0.111 c -0.251,-1.222 -0.996,8.509 0.645,16.505 l 0,0 m -41.491,-9.219 c -1.183,1.225 -7.134,-2.538 -6.064,-3.645 7.757,-10.013 9.046,-13.819 9.046,-13.819 l 4.711,2.848 c 0.395,-1.184 -5.115,6.872 -7.693,14.616 l 0,0 m -31.322,-28.727 c -1.637,0.468 -4.909,-5.766 -3.43,-6.188 11.724,-4.793 14.744,-7.445 14.744,-7.445 l 2.656,4.822 c 0.933,-0.829 -7.866,3.393 -13.97,8.811 l 0,0 m -12.762,-40.541 c -1.652,-0.413 -1.369,-7.447 0.124,-7.074 12.55,1.711 16.491,0.924 16.491,0.924 l -0.111,5.504 c 1.222,-0.251 -8.509,-0.995 -16.504,0.646 l 0,0 m 9.218,-41.491 c -1.224,-1.184 2.538,-7.134 3.645,-6.064 10.013,7.757 13.82,9.046 13.82,9.046 l -2.848,4.711 c 1.183,0.394 -6.873,-5.115 -14.617,-7.693 l 0,0 m 28.728,-31.322 c -0.468,-1.637 5.765,-4.909 6.188,-3.43 4.793,11.725 7.445,14.744 7.445,14.744 l -4.822,2.656 c 0.829,0.933 -3.393,-7.866 -8.811,-13.97 l 0,0"
           id="path4261" />
        <polygon
           style="clip-rule:evenodd;fill:#ffffff;fill-rule:evenodd"
           points="255.789,249.382 271.115,245.739 375.814,318.678 255.789,249.382 "
           id="polygon4263" />
        <polygon
           style="clip-rule:evenodd;fill:#ffffff;fill-rule:evenodd"
           points="240.861,257.232 244.194,273.001 171.565,377.258 240.861,257.232 "
           id="polygon4265" />
        <polygon
           style="clip-rule:evenodd;fill:#ffffff;fill-rule:evenodd"
           points="230.654,242.304 214.843,245.608 110.628,173.007 230.654,242.304 "
           id="polygon4267" />
        <polygon
           style="clip-rule:evenodd;fill:#ffffff;fill-rule:evenodd"
           points="246.76,233.274 244.017,216.66 316.057,113.25 246.76,233.274 "
           id="polygon4269" />
        <path
           style="fill:none;stroke:#000000;stroke-width:2.94589996;stroke-linejoin:round;stroke-miterlimit:10"
           inkscape:connector-curvature="0"
           stroke-miterlimit="10"
           d="m 263.547,240.396 c 3.006,11.22 -3.66,22.765 -14.879,25.771 -11.22,3.006 -22.765,-3.66 -25.771,-14.879 -3.006,-11.22 3.66,-22.766 14.879,-25.771 11.22,-3.006 22.765,3.66 25.771,14.879 l 0,0 z"
           id="path4273" />
        <path
           inkscape:connector-curvature="0"
           d="m 370.086,0 7.66,4.422 5.328,21.391 4.746,-8.22 c 0.578,-1.001 0.914,-1.976 1.006,-2.924 0.092,-0.948 -0.072,-1.804 -0.492,-2.569 -0.221,-0.418 -0.479,-0.774 -0.777,-1.067 -0.297,-0.293 -0.746,-0.644 -1.35,-1.052 l 0.293,-0.505 9.449,5.456 -0.293,0.505 -0.191,-0.11 c -1.373,-0.794 -2.674,-0.961 -3.896,-0.502 -1.225,0.458 -2.316,1.521 -3.277,3.187 l -7.877,13.641 -0.449,-0.26 -6.701,-26.425 -6.543,11.333 c -0.635,1.102 -1.012,2.059 -1.129,2.871 -0.117,0.812 0.012,1.576 0.389,2.291 0.314,0.57 0.793,1.096 1.438,1.577 0.346,0.284 0.865,0.645 1.561,1.083 l -0.293,0.505 -9.953,-5.747 0.291,-0.505 c 1.051,0.534 1.986,0.833 2.805,0.899 0.816,0.065 1.553,-0.114 2.203,-0.539 0.652,-0.425 1.236,-1.083 1.75,-1.975 l 6.229,-10.787 c 0.385,-0.665 0.563,-1.314 0.533,-1.949 -0.027,-0.635 -0.25,-1.241 -0.67,-1.817 -0.42,-0.576 -1.031,-1.096 -1.832,-1.558 L 369.798,0.508 370.086,0 l 0,0 z"
           id="path4275" />
        <path
           inkscape:connector-curvature="0"
           d="m 123.128,472.874 0.478,0.275 -3.776,6.541 -0.478,-0.276 c 0.336,-1.905 0.395,-3.511 0.176,-4.813 -0.171,-0.924 -0.519,-1.851 -1.045,-2.779 -0.526,-0.928 -1.205,-1.813 -2.038,-2.651 -0.833,-0.838 -1.754,-1.55 -2.765,-2.133 -0.755,-0.437 -1.49,-0.721 -2.202,-0.853 -0.712,-0.133 -1.392,-0.112 -2.038,0.062 -0.459,0.123 -0.881,0.316 -1.264,0.581 -0.383,0.264 -0.672,0.564 -0.866,0.901 -0.368,0.637 -0.44,1.33 -0.217,2.078 0.096,0.358 0.296,0.765 0.598,1.219 0.302,0.454 0.73,0.974 1.284,1.561 0.554,0.587 1.347,1.372 2.38,2.357 0.27,0.289 0.458,0.478 0.566,0.563 l 0.575,0.551 0.907,0.888 c 1.534,1.505 2.613,2.674 3.237,3.507 0.623,0.833 1.058,1.71 1.304,2.629 0.208,0.69 0.272,1.395 0.191,2.112 -0.081,0.719 -0.313,1.409 -0.697,2.074 -0.378,0.655 -0.899,1.231 -1.563,1.729 -0.664,0.498 -1.399,0.846 -2.207,1.047 -1.073,0.304 -2.204,0.343 -3.391,0.118 -1.188,-0.225 -2.414,-0.701 -3.679,-1.433 -0.883,-0.51 -1.663,-1.078 -2.338,-1.704 -0.676,-0.627 -1.437,-1.501 -2.283,-2.62 -0.56,-0.712 -1.001,-1.23 -1.323,-1.556 -0.322,-0.326 -0.651,-0.586 -0.988,-0.78 -0.646,-0.373 -1.293,-0.52 -1.941,-0.438 -0.648,0.081 -1.226,0.394 -1.734,0.938 l -0.478,-0.276 5.093,-8.82 0.478,0.275 c -0.713,1.677 -0.9,3.462 -0.562,5.356 0.215,1.12 0.641,2.291 1.276,3.513 0.635,1.223 1.401,2.33 2.298,3.32 0.896,0.991 1.841,1.773 2.833,2.346 0.883,0.51 1.775,0.831 2.676,0.963 0.901,0.132 1.706,0.057 2.415,-0.226 0.709,-0.283 1.253,-0.752 1.632,-1.407 0.399,-0.691 0.481,-1.476 0.247,-2.352 -0.113,-0.393 -0.312,-0.811 -0.596,-1.254 -0.285,-0.443 -0.685,-0.96 -1.2,-1.549 -0.515,-0.589 -1.247,-1.356 -2.192,-2.304 l -1.153,-1.157 c -1.799,-1.803 -3.016,-3.101 -3.651,-3.892 -0.725,-0.868 -1.252,-1.621 -1.581,-2.261 -0.329,-0.639 -0.535,-1.328 -0.618,-2.067 -0.144,-1.055 0.037,-2.019 0.541,-2.893 0.61,-1.056 1.472,-1.823 2.586,-2.303 1.114,-0.48 2.373,-0.63 3.774,-0.451 1.402,0.178 2.791,0.664 4.165,1.458 2.075,1.198 3.895,3.019 5.458,5.463 0.557,0.843 0.976,1.347 1.258,1.51 0.712,0.41 1.524,0.181 2.438,-0.687 l 0,0 0,0 z"
           id="path4277" />
        <path
           inkscape:connector-curvature="0"
           d="m 1.44,91.657 9.927,5.731 -0.264,0.521 C 10.288,97.45 9.63,97.217 9.132,97.208 8.634,97.199 8.255,97.418 7.998,97.864 7.746,98.301 7.562,98.808 7.448,99.385 l -2.413,13.481 9.481,-7.435 c 0.217,-1.112 0.332,-1.957 0.343,-2.533 0.011,-0.576 -0.067,-1.149 -0.236,-1.72 -0.128,-0.535 -0.328,-0.972 -0.6,-1.311 -0.271,-0.339 -0.658,-0.653 -1.158,-0.942 l 0.292,-0.505 10.35,5.976 -0.292,0.505 -0.505,-0.292 c -0.819,-0.473 -1.537,-0.702 -2.152,-0.687 -0.616,0.015 -1.076,0.286 -1.38,0.814 -0.205,0.355 -0.336,0.729 -0.392,1.121 l -2.362,13.583 9.956,-7.942 c 0.521,-0.44 0.91,-0.883 1.168,-1.329 0.394,-0.683 0.422,-1.346 0.084,-1.991 -0.338,-0.644 -1.055,-1.3 -2.149,-1.969 l 0.265,-0.521 7.66,4.422 -0.292,0.505 c -0.531,-0.258 -0.989,-0.416 -1.374,-0.475 -0.385,-0.059 -0.846,-0.054 -1.382,0.012 -1.111,0.16 -2.322,0.753 -3.632,1.781 L 11.936,123.711 11.431,123.419 14.422,106.193 0.533,117.131 0,116.823 3.203,98.536 C 3.514,96.883 3.545,95.578 3.297,94.621 3.048,93.664 2.491,92.936 1.627,92.437 l -0.478,-0.276 0.291,-0.504 0,0 z"
           id="path4279" />
        <path
           inkscape:connector-curvature="0"
           d="m 467.643,361.344 20.289,11.715 -4.264,7.387 -0.41,-0.236 c 0.373,-1.508 0.598,-2.668 0.672,-3.48 0.074,-0.812 0.041,-1.643 -0.102,-2.489 -0.18,-1.014 -0.521,-1.861 -1.027,-2.541 -0.852,-1.111 -2.078,-2.129 -3.68,-3.054 l -3.756,-2.168 -5.234,9.066 1.01,0.584 c 1.502,0.867 3.068,0.909 4.697,0.126 0.838,-0.401 1.633,-0.999 2.383,-1.792 0.334,-0.329 0.768,-0.849 1.301,-1.562 l 0.479,0.276 -7.221,12.508 -0.479,-0.276 c 0.279,-0.736 0.516,-1.446 0.711,-2.129 0.193,-0.684 0.305,-1.266 0.334,-1.746 0.029,-0.481 0.006,-0.992 -0.07,-1.534 -0.236,-1.483 -1.109,-2.661 -2.621,-3.533 l -0.791,-0.457 -4.928,8.534 3.141,1.813 c 0.928,0.536 1.801,0.952 2.619,1.249 0.818,0.296 1.604,0.477 2.355,0.54 0.752,0.064 1.516,0.022 2.293,-0.124 1.328,-0.24 2.564,-0.783 3.707,-1.628 0.656,-0.483 1.455,-1.187 2.4,-2.109 l 0.506,0.292 -4.533,7.852 -20.768,-11.991 0.264,-0.521 0.52,0.3 c 2.313,1.335 4.141,0.837 5.486,-1.493 l 6.408,-11.102 c 0.684,-1.184 0.906,-2.22 0.668,-3.11 -0.238,-0.89 -0.949,-1.677 -2.133,-2.36 l -0.52,-0.3 0.294,-0.507 0,0 z"
           id="path4281" />
        <path
           style="fill:#fff6f6"
           inkscape:connector-curvature="0"
           d="m 374.418,4.676 c 2.055,8.117 4.107,16.233 6.162,24.349 2.99,-3.565 -0.623,-8.059 -0.924,-12.084 -1.279,-3.911 -1.541,-8.587 -3.438,-12.033 -0.622,-0.025 -2.909,-2.468 -1.8,-0.232 l 0,0 z m 15.5,8.395 c -0.107,1.432 0.42,1.075 1.434,0.573 -0.196,0.115 -1.864,-1.476 -1.434,-0.573 l 0,0 z m -25.613,6.877 c -2.006,0.267 1.017,1.494 0,0 l 0,0 z"
           id="path4283" />
        <path
           style="fill:#fff6f6"
           inkscape:connector-curvature="0"
           d="m 121.098,474.924 c -0.871,-0.383 -0.034,1.734 0,0 l 0,0 z m -14.574,-8.266 c -3.393,1.279 -2.889,5.736 -0.496,7.708 2.803,3.952 8.057,6.543 9.168,11.48 0.428,0.987 -1.419,3.452 0.174,2.056 3.268,-2.511 0.856,-7.096 -1.757,-9.072 -2.586,-3.317 -7.692,-5.627 -7.796,-10.284 -0.042,-0.628 0.724,-1.766 0.707,-1.888 l 0,0 z m -8.573,13.781 c 0.963,-0.138 2.396,0.982 1.495,-0.711 -0.277,-2.761 -0.478,-0.582 -1.495,0.711 l 0,0 z"
           id="path4285" />
        <path
           style="fill:#fff6f6"
           inkscape:connector-curvature="0"
           d="m 4.592,95.198 c -0.18,6.589 -2.229,13.098 -3.061,19.663 4.037,-2.213 2.666,-7.653 4.008,-11.473 C 6.2,101.16 5.806,98.317 7.586,96.566 6.879,96.41 4.534,94.309 4.592,95.198 l 0,0 z m 11.3,6.205 c 0.346,5.647 -1.887,11.807 -2.536,17.758 -0.562,5.151 3.552,-2.688 2.817,-5.145 1.23,-3.444 0.125,-8.107 2.878,-10.832 -1.017,-0.562 -2.245,-1.346 -3.159,-1.781 l 0,0 z m 13.145,7.76 c 0.299,0.386 0.223,-0.632 0,0 l 0,0 z"
           id="path4287" />
        <path
           style="fill:#fff6f6"
           inkscape:connector-curvature="0"
           d="m 471.283,364.919 c -0.418,4.705 -4.443,8.243 -6.227,12.478 -0.967,1.646 -1.822,3.634 -3.688,4.398 3.736,3.987 4.639,-2.608 6.668,-4.995 2,-3.465 4.002,-6.931 6.002,-10.396 -0.829,-0.413 -2.143,-1.373 -2.755,-1.485 l 0,0 z m 13.385,7.855 c 0.563,0.753 0.117,4.121 1.061,1.738 1.757,-1.012 -1.266,-2.216 -1.061,-1.738 l 0,0 z m -8.662,4.694 c -1.117,0.507 -2.746,0.205 -1.703,1.737 -0.022,3.165 1.615,-1.91 1.703,-1.737 l 0,0 z m 2.307,10.771 c -1.201,0.648 -2.531,0.954 -3.869,1.104 2.613,2.335 3.286,0.71 3.869,-1.104 l 0,0 z"
           id="path4289" />
        <path
           style="clip-rule:evenodd;fill:#888888;fill-rule:evenodd"
           inkscape:connector-curvature="0"
           d="m 228.648,238.814 c -2.859,11.584 3.745,20.13 19.799,24.446 0.158,0.198 -11.731,1.009 -17.577,-4.849 -6.973,-6.987 -3.973,-20.27 -2.222,-19.597 l 0,0 z"
           id="path4291" />
        <path
           style="clip-rule:evenodd;fill:#888888;fill-rule:evenodd"
           inkscape:connector-curvature="0"
           d="m 255.979,258.405 c 7.461,-10.233 3.227,-26.195 -8.465,-31.199 -0.057,-0.247 7.238,2.292 11.855,9.161 6.651,9.897 -1.301,23.541 -3.39,22.038 l 0,0 z"
           id="path4293" />
      </g>
    </g>
    <rect
       style="opacity:1;fill:none;fill-opacity:1;fill-rule:evenodd;stroke:none;stroke-width:11;stroke-miterlimit:4;stroke-dasharray:none;stroke-opacity:1"
       id="rect4203"
       width="45.714287"
       height="56.07143"
       x="316.04318"
       y="419.87961" />
    <text
       xml:space="preserve"
       style="font-style:normal;font-weight:normal;font-size:12px;line-height:125%;font-family:Sans;-inkscape-font-specification:Sans;letter-spacing:0px;word-spacing:0px;fill:#f60000;fill-opacity:1;stroke:none;stroke-width:1px;stroke-linecap:butt;stroke-linejoin:miter;stroke-opacity:1"
       x="565.75171"
       y="412.59137"
       id="text4210"
       sodipodi:linespacing="125%"><tspan
         sodipodi:role="line"
         id="tspan4212"
         x="565.75171"
         y="412.59137"
         style="font-size:22.5px;fill:#f60000;fill-opacity:1">X</tspan></text>
    <text
       xml:space="preserve"
       style="font-style:normal;font-weight:normal;font-size:12px;line-height:125%;font-family:Sans;-inkscape-font-specification:Sans;letter-spacing:0px;word-spacing:0px;fill:#1df600;fill-opacity:1;stroke:none;stroke-width:1px;stroke-linecap:butt;stroke-linejoin:miter;stroke-opacity:1"
       x="309.13235"
       y="195.67133"
       id="text4214"
       sodipodi:linespacing="125%"><tspan
         sodipodi:role="line"
         id="tspan4216"
         x="309.13235"
         y="195.67133"
         style="font-size:22.5px;fill:#1df600;fill-opacity:1">Y</tspan></text>
    <text
       xml:space="preserve"
       style="font-style:normal;font-weight:normal;font-size:12px;line-height:125%;font-family:Sans;-inkscape-font-specification:Sans;letter-spacing:0px;word-spacing:0px;fill:#0000f6;fill-opacity:1;stroke:none;stroke-width:1px;stroke-linecap:butt;stroke-linejoin:miter;stroke-opacity:1"
       x="275.54605"
       y="501.86581"
       id="text4218"
       sodipodi:linespacing="125%"><tspan
         sodipodi:role="line"
         id="tspan4220"
         x="275.54605"
         y="501.86581"
         style="font-size:22.5px;fill:#0000f6;fill-opacity:1">Z</tspan></text>
    <g
       transform="matrix(0,-1,-1,0,661.61364,606.66662)"
       id="g4376">
      <path
         style="opacity:1;fill:#1bf500;fill-opacity:1;fill-rule:evenodd;stroke:none;stroke-width:11;stroke-miterlimit:4;stroke-dasharray:none;stroke-opacity:1"
         d="m 330.58984,175.82812 0,212.9629 2.52539,0 0,-212.9629 -2.52539,0 z"
         transform="matrix(0,-1,-1,0,606.66662,661.61364)"
         id="path4378"
         inkscape:connector-curvature="0" />
      <path
         inkscape:connector-curvature="0"
         id="path4380"
         d="m 429.56737,326.18879 0,7.57614 13.60743,-3.6461 z"
         style="fill:#1df600;fill-opacity:1;fill-rule:evenodd;stroke:#1df600;stroke-width:1px;stroke-linecap:butt;stroke-linejoin:miter;stroke-opacity:1" />
    </g>
  </g>
</svg>
